<svg width="1200" height="520" viewBox="0 0 1200 520" fill="none" xmlns="http://www.w3.org/2000/svg">
  <rect width="1200" height="520" fill="#0F766E"/>
  <path d="M0 0H1200V520H0V0Z" fill="url(#paint0_linear)"/>
  <circle cx="1034" cy="96" r="190" fill="#14B8A6" fill-opacity="0.18"/>
  <circle cx="138" cy="416" r="206" fill="#EA580C" fill-opacity="0.16"/>
  <path d="M710 344C710 243.484 791.484 162 892 162C992.516 162 1074 243.484 1074 344V379C1074 407.167 1051.17 430 1023 430H761C732.833 430 710 407.167 710 379V344Z" fill="white" fill-opacity="0.94"/>
  <path d="M780 162C790.231 92.604 838.974 39 894 39C949.026 39 997.769 92.604 1008 162" stroke="white" stroke-opacity="0.94" stroke-width="42" stroke-linecap="round"/>
  <path d="M790 334L856 268L904 316L1010 210" stroke="#0F766E" stroke-width="36" stroke-linecap="round" stroke-linejoin="round"/>
  <path d="M1010 210H938" stroke="#0F766E" stroke-width="36" stroke-linecap="round"/>
  <path d="M1010 210V282" stroke="#0F766E" stroke-width="36" stroke-linecap="round"/>
  <circle cx="724" cy="100" r="32" fill="#F97316"/>
  <circle cx="1078" cy="410" r="26" fill="#F97316"/>
  <text x="74" y="150" fill="white" font-family="-apple-system, BlinkMacSystemFont, 'Segoe UI', sans-serif" font-size="62" font-weight="900">Mirai Ledger</text>
  <text x="74" y="218" fill="#CCFBF1" font-family="-apple-system, BlinkMacSystemFont, 'Segoe UI', sans-serif" font-size="34" font-weight="800">資産を見える化して、未来のお金を育てる</text>
  <g transform="translate(78 276)">
    <rect width="96" height="96" rx="24" fill="white" fill-opacity="0.16"/>
    <path d="M28 62L44 46L55 57L72 36" stroke="white" stroke-width="8" stroke-linecap="round" stroke-linejoin="round"/>
    <path d="M72 36H56" stroke="white" stroke-width="8" stroke-linecap="round"/>
    <path d="M72 36V52" stroke="white" stroke-width="8" stroke-linecap="round"/>
  </g>
  <text x="196" y="326" fill="white" font-family="-apple-system, BlinkMacSystemFont, 'Segoe UI', sans-serif" font-size="28" font-weight="800">家計簿 × 資産管理 × AI分析</text>
  <text x="196" y="366" fill="#D1FAE5" font-family="-apple-system, BlinkMacSystemFont, 'Segoe UI', sans-serif" font-size="22" font-weight="700">収入・支出・貯金目標までひと目で管理</text>
  <defs>
    <linearGradient id="paint0_linear" x1="0" y1="0" x2="1200" y2="520" gradientUnits="userSpaceOnUse">
      <stop stop-color="#064E3B"/>
      <stop offset="0.52" stop-color="#0F766E"/>
      <stop offset="1" stop-color="#EA580C"/>
    </linearGradient>
  </defs>
</svg>
